<?xml version="1.0" standalone="no"?>
<!DOCTYPE svg PUBLIC "-//W3C//DTD SVG 1.1//EN" "http://www.w3.org/Graphics/SVG/1.1/DTD/svg11.dtd">
<svg version="1.1" xmlns="http://www.w3.org/2000/svg" viewBox="0 0 316.933349609375 191.69998168945312" width="633.86669921875" height="383.39996337890625"><!-- svg-source:excalidraw --><metadata></metadata><defs><style class="style-fonts">
      </style></defs><g stroke-linecap="round" transform="translate(65.34128948017383 103.58061825504228) rotate(0 74.02866574586756 36.25115880252224)"><path d="M4.82 4.19 C4.82 4.19, 4.82 4.19, 4.82 4.19 M4.82 4.19 C4.82 4.19, 4.82 4.19, 4.82 4.19 M0.37 21.52 C5.34 15.37, 8.91 10.08, 18.74 0.39 M0.37 21.52 C5.13 16.38, 10.03 10.18, 18.74 0.39 M0.5 33.56 C7.81 23.6, 14.98 16.28, 29.37 0.35 M0.5 33.56 C10.04 23.44, 18.3 11.87, 29.37 0.35 M0.63 45.6 C10.23 35.25, 18.02 25.5, 40 0.32 M0.63 45.6 C9.6 36.31, 19.15 25.81, 40 0.32 M0.11 58.4 C11.4 45.13, 24.09 29.64, 50.63 0.28 M0.11 58.4 C13.47 42.24, 26.24 27.07, 50.63 0.28 M3.52 66.66 C16.8 51.42, 32.34 32.22, 61.26 0.25 M3.52 66.66 C22.44 47.38, 39.43 27.68, 61.26 0.25 M10.22 71.16 C30.42 50.15, 47.78 28.09, 71.89 0.21 M10.22 71.16 C29.29 50.06, 48.21 28.89, 71.89 0.21 M19.53 72.63 C37.21 54.17, 51.84 33.78, 82.52 0.18 M19.53 72.63 C32.91 57.63, 46.38 41.99, 82.52 0.18 M30.16 72.6 C46.01 52.28, 66.41 31.98, 93.15 0.14 M30.16 72.6 C45.46 56.79, 60.52 38.34, 93.15 0.14 M40.79 72.56 C56.25 51.33, 71.77 35.92, 103.78 0.11 M40.79 72.56 C63.81 46.17, 86.92 19.42, 103.78 0.11 M51.42 72.53 C70.5 51.19, 91.79 28, 113.75 0.83 M51.42 72.53 C66.79 52.77, 83.48 35.7, 113.75 0.83 M62.05 72.49 C78.5 53.91, 94.46 36.04, 124.38 0.8 M62.05 72.49 C82.97 50.12, 101.52 26.29, 124.38 0.8 M72.68 72.46 C94.16 49.53, 113.4 24.94, 134.35 1.52 M72.68 72.46 C86.32 56.91, 99.56 41.75, 134.35 1.52 M83.31 72.42 C99.7 49.44, 119.33 30.18, 142.36 4.5 M83.31 72.42 C104.2 50.37, 123.09 27.74, 142.36 4.5 M93.94 72.39 C113.97 49.74, 133.93 28.12, 147.09 11.26 M93.94 72.39 C111.75 50.54, 129.81 30.29, 147.09 11.26 M104.57 72.36 C116.41 59.29, 128.27 44.43, 148.53 21.79 M104.57 72.36 C113.51 62.24, 123.75 50.79, 148.53 21.79 M115.2 72.32 C128.86 57.49, 140.65 40.03, 148.66 33.83 M115.2 72.32 C127 60.06, 136.95 47.74, 148.66 33.83 M125.83 72.29 C132.11 63.49, 138.15 56.74, 148.8 45.87 M125.83 72.29 C131.73 66.7, 135.51 60.27, 148.8 45.87 M137.12 71.5 C141.8 67.2, 142.03 62.67, 147.62 59.42 M137.12 71.5 C140.17 68.06, 143.07 64.74, 147.62 59.42" stroke="#ffec99" stroke-width="1" fill="none"></path><path d="M18.13 0 C42.55 -0.81, 67.82 -0.52, 129.93 0 M18.13 0 C58.7 -0.76, 101.55 -0.49, 129.93 0 M129.93 0 C141.22 -1.7, 148.32 6.12, 148.06 18.13 M129.93 0 C140.3 1.16, 147.22 5.49, 148.06 18.13 M148.06 18.13 C147.65 24.66, 147.53 35.39, 148.06 54.38 M148.06 18.13 C148.9 28, 147.94 36.22, 148.06 54.38 M148.06 54.38 C149.39 67.02, 143.22 71.82, 129.93 72.5 M148.06 54.38 C149.3 64.43, 142.82 70.96, 129.93 72.5 M129.93 72.5 C91.2 71.34, 51.47 73.22, 18.13 72.5 M129.93 72.5 C87.44 73.47, 42.85 73.6, 18.13 72.5 M18.13 72.5 C6.86 71.02, -0.33 64.89, 0 54.38 M18.13 72.5 C4.49 70.97, -2.26 65.68, 0 54.38 M0 54.38 C-1.01 41.7, -0.1 25.17, 0 18.13 M0 54.38 C0.42 45.48, 0.59 38.54, 0 18.13 M0 18.13 C-1.88 7.78, 5.44 -1.46, 18.13 0 M0 18.13 C1.83 7.86, 5.67 1.83, 18.13 0" stroke="#f08c00" stroke-width="2" fill="none"></path></g><g stroke-linecap="round" transform="translate(24.94938557883313 31.848624344878772) rotate(325.68120695252315 42.99260054260293 32.0359536781898)"><path d="M4.26 3.71 C4.26 3.71, 4.26 3.71, 4.26 3.71 M4.26 3.71 C4.26 3.71, 4.26 3.71, 4.26 3.71 M0.46 20.28 C7.19 13.12, 9.44 9.25, 17.52 0.65 M0.46 20.28 C5.69 13.08, 11.5 7.17, 17.52 0.65 M0.59 32.32 C8.21 21.15, 17.47 11.46, 28.15 0.62 M0.59 32.32 C6.01 24.47, 12.77 17.9, 28.15 0.62 M0.73 44.36 C12.77 27.38, 28.47 14.37, 38.78 0.58 M0.73 44.36 C12.11 33.55, 20.77 21.71, 38.78 0.58 M2.17 54.89 C13.76 42.44, 23.73 29.99, 49.41 0.55 M2.17 54.89 C15.19 38.72, 29.02 24.68, 49.41 0.55 M6.9 61.65 C22.44 45.4, 34.31 30.42, 60.04 0.52 M6.9 61.65 C23.96 42.71, 40 23.76, 60.04 0.52 M15.56 63.88 C36.05 40.57, 57.23 16.61, 70.67 0.48 M15.56 63.88 C34.59 40.7, 53.12 20.24, 70.67 0.48 M25.53 64.6 C40.98 46.47, 58.62 28.67, 79.33 2.71 M25.53 64.6 C38.18 51.21, 49.29 36.49, 79.33 2.71 M36.16 64.56 C54.25 46.67, 68.05 27.25, 84.71 8.71 M36.16 64.56 C50.4 49.58, 61.98 34.42, 84.71 8.71 M46.79 64.53 C55.42 54.84, 65.31 46.83, 86.16 19.24 M46.79 64.53 C58.17 50.87, 67.86 39.42, 86.16 19.24 M57.42 64.49 C62.89 57.63, 73.63 47.15, 86.29 31.29 M57.42 64.49 C66.04 53.96, 75.49 42.97, 86.29 31.29 M68.05 64.46 C75.22 56.63, 82.69 50.4, 85.77 44.08 M68.05 64.46 C73.23 57.61, 78.23 52.33, 85.77 44.08" stroke="#ffec99" stroke-width="1" fill="none"></path><path d="M16.02 0 C25.67 1.76, 39.81 -0.16, 69.97 0 M16.02 0 C36.47 -1.14, 56.02 -0.16, 69.97 0 M69.97 0 C78.96 -0.67, 86.2 4.22, 85.99 16.02 M69.97 0 C81.93 1.27, 84.74 6.89, 85.99 16.02 M85.99 16.02 C86.83 24.63, 85.21 31.96, 85.99 48.05 M85.99 16.02 C86.35 24.42, 86.58 33.14, 85.99 48.05 M85.99 48.05 C86.44 57.63, 79.21 63.2, 69.97 64.07 M85.99 48.05 C86 56.48, 80.77 62.75, 69.97 64.07 M69.97 64.07 C53.76 64.66, 34.77 62.64, 16.02 64.07 M69.97 64.07 C57.33 63.72, 43.92 64.17, 16.02 64.07 M16.02 64.07 C3.79 63.42, -1.22 58.85, 0 48.05 M16.02 64.07 C6.59 66.01, 0.29 57.64, 0 48.05 M0 48.05 C1.28 37.32, 0.47 29.05, 0 16.02 M0 48.05 C-0.86 40.82, -0.9 34.56, 0 16.02 M0 16.02 C0.05 4.82, 4.22 1.18, 16.02 0 M0 16.02 C0.02 3.68, 5.37 -2.03, 16.02 0" stroke="#f08c00" stroke-width="2" fill="none"></path></g><g stroke-linecap="round" transform="translate(213.14423418186493 92.38728438667476) rotate(348.3312281849278 11.44773435869115 38.66789495919829)"><path d="M1.52 1.32 C1.52 1.32, 1.52 1.32, 1.52 1.32 M1.52 1.32 C1.52 1.32, 1.52 1.32, 1.52 1.32 M4.94 9.59 C6.87 7.57, 7.93 6.42, 10.19 3.55 M4.94 9.59 C6.21 7.64, 8.21 5.94, 10.19 3.55 M5.07 21.63 C11.1 13.78, 18.55 7.93, 22.13 2.01 M5.07 21.63 C9.87 15.2, 16.51 9.58, 22.13 2.01 M4.55 34.43 C9.68 27.15, 16.45 21.01, 27.51 8.01 M4.55 34.43 C12.54 25, 20.09 15.97, 27.51 8.01 M4.68 46.47 C11.58 37.14, 22.37 27.08, 27.64 20.05 M4.68 46.47 C12.46 37.52, 19.97 30.01, 27.64 20.05 M4.81 58.51 C7.77 52.34, 13.48 48.02, 27.78 32.1 M4.81 58.51 C10.57 53.61, 13.62 47.29, 27.78 32.1 M1.01 75.08 C7.36 66.54, 17.21 58.19, 27.91 44.14 M1.01 75.08 C7.85 68.86, 12.68 59.98, 27.91 44.14 M7.05 80.33 C12.72 76.72, 16.13 70.44, 28.04 56.18 M7.05 80.33 C15.2 71.29, 24.12 61.89, 28.04 56.18" stroke="#ffec99" stroke-width="1" fill="none"></path><path d="M5.72 0 C10.62 0.31, 14.29 -0.89, 17.17 0 M5.72 0 C9.81 0.12, 13.01 0.19, 17.17 0 M17.17 0 C20.6 1.68, 23.75 1.95, 22.9 5.72 M17.17 0 C19.52 -0.41, 22.18 0.26, 22.9 5.72 M22.9 5.72 C23.97 19.14, 23.16 36.44, 22.9 71.61 M22.9 5.72 C23.15 25.91, 22.56 47.26, 22.9 71.61 M22.9 71.61 C21.23 76.39, 21.67 76.54, 17.17 77.34 M22.9 71.61 C24.35 73.8, 19.4 77.91, 17.17 77.34 M17.17 77.34 C13.14 78.19, 8.99 77.59, 5.72 77.34 M17.17 77.34 C13.73 77.85, 10.83 77.3, 5.72 77.34 M5.72 77.34 C3.47 75.41, -1.93 76, 0 71.61 M5.72 77.34 C-0.35 76.23, 0.33 75.78, 0 71.61 M0 71.61 C0.01 49.89, -0.18 29.24, 0 5.72 M0 71.61 C-0.06 54.34, -0.07 39.31, 0 5.72 M0 5.72 C-0.17 2.96, 2.49 1.31, 5.72 0 M0 5.72 C0.33 0.41, 4.09 -0.49, 5.72 0" stroke="#f08c00" stroke-width="2" fill="none"></path></g><g stroke-linecap="round" transform="translate(237.4541847483074 38.555204895972565) rotate(99.19025019534142 23.712121507625852 35.69299626111615)"><path d="M1.93 4.33 C1.93 4.33, 1.93 4.33, 1.93 4.33 M1.93 4.33 C1.93 4.33, 1.93 4.33, 1.93 4.33 M4.69 13.35 C7.28 9.6, 10.29 6.57, 14.53 2.03 M4.69 13.35 C6.35 10.35, 8.82 9.14, 14.53 2.03 M4.82 25.39 C8.38 18.9, 14.3 15.31, 25.16 2 M4.82 25.39 C11.74 17.2, 17.36 11.23, 25.16 2 M4.95 37.43 C9.69 29.01, 18.04 25.14, 35.13 2.72 M4.95 37.43 C12.5 27.69, 19.71 20.78, 35.13 2.72 M5.09 49.47 C19.81 31.63, 30.82 16.66, 45.11 3.44 M5.09 49.47 C17.23 35.68, 28.35 22.72, 45.11 3.44 M1.94 65.29 C10.77 53.74, 21.54 42.87, 50.49 9.44 M1.94 65.29 C18.65 45.41, 37.23 24.4, 50.49 9.44 M6.67 72.05 C23.1 54.84, 41.41 36.19, 50.62 21.48 M6.67 72.05 C22.06 56.41, 34.57 39.5, 50.62 21.48 M14.02 75.78 C28.08 60.73, 38.84 48.39, 50.75 33.52 M14.02 75.78 C24.95 63.41, 34.27 51.18, 50.75 33.52 M24.65 75.75 C31.7 67.48, 35.52 61.39, 50.89 45.56 M24.65 75.75 C32.41 65.81, 40.31 57.1, 50.89 45.56 M35.93 74.96 C39.64 69.97, 46.37 63.93, 51.02 57.6 M35.93 74.96 C39.48 70.35, 44.09 64.16, 51.02 57.6" stroke="#ffec99" stroke-width="1" fill="none"></path><path d="M11.86 0 C20.74 -1.02, 30.06 0.02, 35.57 0 M11.86 0 C16.85 0.96, 21.76 -0.16, 35.57 0 M35.57 0 C42.93 1.48, 46.92 2.16, 47.42 11.86 M35.57 0 C42.46 -1.28, 45.59 5.86, 47.42 11.86 M47.42 11.86 C46.2 21.9, 46.48 33.46, 47.42 59.53 M47.42 11.86 C47.76 25.03, 47.39 40.03, 47.42 59.53 M47.42 59.53 C48.49 66.62, 42.54 69.47, 35.57 71.39 M47.42 59.53 C46.34 66.68, 43.33 71.44, 35.57 71.39 M35.57 71.39 C27.93 70.52, 19.44 70.37, 11.86 71.39 M35.57 71.39 C26.87 71.49, 20.03 71.05, 11.86 71.39 M11.86 71.39 C4.48 71.55, 0.98 68.04, 0 59.53 M11.86 71.39 C3.47 72.12, 2.08 65.57, 0 59.53 M0 59.53 C-0.51 41.21, 0.96 23.44, 0 11.86 M0 59.53 C0.68 48.36, -0.27 38.46, 0 11.86 M0 11.86 C-0.97 2.57, 2.78 -0.25, 11.86 0 M0 11.86 C1.51 3.81, 2.2 0.35, 11.86 0" stroke="#f08c00" stroke-width="2" fill="none"></path></g><g transform="translate(110.29998779296875 65.5333251953125) rotate(0 -21.25 16.150009155273438)" stroke="none"><path fill="#1e1e1e" d="M 2.83,3.28 Q 2.83,3.28 -3.18,8.16 -9.19,13.04 -14.76,17.37 -20.33,21.70 -24.13,24.91 -27.93,28.11 -30.13,30.17 -32.33,32.24 -34.43,33.47 -36.53,34.71 -38.94,35.54 -41.36,36.37 -42.04,36.44 -42.72,36.52 -43.39,36.37 -44.06,36.22 -44.65,35.87 -45.23,35.52 -45.67,35.00 -46.12,34.48 -46.37,33.84 -46.62,33.20 -46.66,32.52 -46.70,31.84 -46.52,31.18 -46.33,30.52 -45.95,29.95 -45.57,29.39 -45.02,28.97 -44.48,28.56 -43.83,28.34 -43.18,28.12 -42.50,28.12 -41.81,28.12 -41.16,28.34 -40.51,28.56 -39.97,28.97 -39.43,29.39 -39.04,29.95 -38.66,30.52 -38.47,31.18 -38.29,31.84 -38.33,32.52 -38.37,33.20 -38.62,33.84 -38.87,34.47 -39.31,35.00 -39.76,35.52 -40.34,35.87 -40.93,36.22 -41.60,36.37 -42.27,36.52 -42.95,36.44 -43.63,36.37 -44.25,36.08 -44.87,35.80 -45.36,35.32 -45.86,34.85 -46.18,34.25 -46.50,33.65 -46.61,32.97 -46.72,32.30 -46.61,31.62 -46.50,30.94 -46.18,30.34 -45.86,29.74 -45.36,29.27 -44.87,28.80 -44.25,28.51 -43.63,28.22 -43.63,28.22 -43.63,28.22 -40.28,27.46 -36.93,26.70 -34.62,24.94 -32.31,23.18 -28.56,19.69 -24.82,16.20 -19.54,11.68 -14.26,7.15 -8.54,1.93 -2.83,-3.28 -2.39,-3.58 -1.96,-3.87 -1.47,-4.05 -0.97,-4.22 -0.45,-4.28 0.06,-4.34 0.57,-4.26 1.09,-4.19 1.58,-4.00 2.07,-3.81 2.49,-3.51 2.92,-3.20 3.26,-2.81 3.60,-2.41 3.84,-1.94 4.08,-1.48 4.19,-0.97 4.31,-0.46 4.30,0.06 4.30,0.58 4.16,1.09 4.03,1.59 3.78,2.05 3.53,2.51 3.18,2.90 2.83,3.28 2.83,3.28 L 2.83,3.28 Z"></path></g><g transform="translate(117.66668701171875 63.833343505859375) rotate(0 60.916656494140625 1.1333160400390625)" stroke="none"><path fill="#1e1e1e" d="M -0.25,-3.11 Q -0.25,-3.11 5.61,-3.53 11.48,-3.95 17.38,-4.43 23.29,-4.92 29.43,-5.27 35.57,-5.63 41.80,-5.77 48.03,-5.91 54.65,-5.64 61.28,-5.36 67.74,-4.58 74.21,-3.80 80.42,-2.64 86.63,-1.48 93.25,-0.51 99.88,0.45 106.26,1.19 112.64,1.93 117.39,2.48 122.13,3.03 122.54,3.15 122.95,3.27 123.31,3.51 123.66,3.75 123.92,4.09 124.17,4.44 124.31,4.84 124.44,5.25 124.44,5.68 124.44,6.11 124.30,6.51 124.16,6.92 123.90,7.26 123.64,7.59 123.28,7.83 122.92,8.07 122.51,8.18 122.10,8.29 121.67,8.27 121.24,8.24 120.85,8.08 120.45,7.92 120.12,7.64 119.80,7.36 119.58,6.99 119.36,6.63 119.27,6.21 119.18,5.79 119.23,5.36 119.28,4.94 119.46,4.55 119.65,4.16 119.94,3.85 120.24,3.54 120.62,3.35 121.00,3.15 121.42,3.08 121.85,3.01 122.27,3.09 122.69,3.16 123.07,3.36 123.44,3.56 123.74,3.88 124.03,4.19 124.21,4.58 124.38,4.97 124.43,5.40 124.47,5.82 124.38,6.24 124.28,6.66 124.06,7.02 123.83,7.39 123.51,7.66 123.18,7.94 122.78,8.09 122.38,8.25 121.95,8.27 121.52,8.29 121.53,8.29 121.53,8.29 116.78,7.75 112.03,7.21 105.57,6.47 99.11,5.73 92.38,4.75 85.65,3.78 79.61,2.67 73.57,1.55 67.32,0.81 61.06,0.08 54.62,-0.15 48.17,-0.39 42.05,-0.20 35.93,-0.01 29.87,0.41 23.81,0.83 17.89,1.41 11.97,2.00 6.11,2.55 0.25,3.11 -0.11,3.09 -0.49,3.08 -0.85,2.98 -1.21,2.87 -1.54,2.69 -1.87,2.50 -2.14,2.24 -2.41,1.98 -2.61,1.66 -2.81,1.34 -2.93,0.98 -3.05,0.63 -3.09,0.25 -3.12,-0.11 -3.06,-0.48 -3.00,-0.86 -2.85,-1.20 -2.70,-1.55 -2.48,-1.85 -2.25,-2.15 -1.96,-2.39 -1.67,-2.63 -1.33,-2.79 -0.99,-2.96 -0.62,-3.03 -0.25,-3.11 -0.25,-3.11 L -0.25,-3.11 Z"></path></g><g transform="translate(77.433349609375 102.93331909179688) rotate(0 71.683349609375 1.4166717529296875)" stroke="none"><path fill="#1e1e1e" d="M 0.49,-3.16 Q 0.49,-3.16 3.61,-2.81 6.73,-2.46 11.48,-1.99 16.23,-1.52 22.83,-1.12 29.42,-0.71 36.92,-0.52 44.42,-0.32 52.50,-0.22 60.58,-0.11 68.25,-0.06 75.92,-0.00 83.09,0.03 90.26,0.06 97.55,0.08 104.83,0.10 112.32,0.12 119.82,0.13 125.61,0.14 131.40,0.15 134.84,0.00 138.28,-0.15 140.82,-0.36 143.36,-0.58 143.91,-0.49 144.45,-0.40 144.94,-0.14 145.43,0.11 145.81,0.51 146.19,0.91 146.42,1.41 146.65,1.91 146.71,2.46 146.77,3.01 146.66,3.55 146.54,4.09 146.25,4.57 145.97,5.04 145.54,5.40 145.12,5.76 144.61,5.96 144.10,6.17 143.54,6.20 142.99,6.23 142.46,6.08 141.93,5.93 141.47,5.62 141.01,5.31 140.68,4.87 140.34,4.43 140.17,3.90 139.99,3.38 139.99,2.83 139.99,2.27 140.17,1.75 140.34,1.23 140.68,0.79 141.01,0.35 141.47,0.04 141.93,-0.26 142.46,-0.41 142.99,-0.56 143.55,-0.53 144.10,-0.50 144.61,-0.29 145.12,-0.09 145.55,0.26 145.97,0.62 146.25,1.09 146.54,1.56 146.66,2.10 146.77,2.64 146.71,3.19 146.65,3.74 146.42,4.25 146.19,4.75 145.81,5.15 145.43,5.55 144.94,5.81 144.45,6.07 143.91,6.16 143.36,6.25 143.36,6.25 143.36,6.25 140.82,6.03 138.28,5.81 134.84,5.66 131.40,5.50 125.61,5.51 119.82,5.52 112.32,5.53 104.83,5.54 97.54,5.55 90.25,5.57 83.08,5.58 75.90,5.59 68.22,5.60 60.54,5.61 52.43,5.60 44.32,5.58 36.72,5.51 29.12,5.43 22.43,5.19 15.74,4.96 10.69,4.68 5.64,4.41 2.57,3.79 -0.49,3.16 -0.87,3.06 -1.24,2.95 -1.57,2.76 -1.91,2.57 -2.19,2.30 -2.47,2.03 -2.68,1.71 -2.88,1.38 -3.01,1.02 -3.13,0.65 -3.17,0.27 -3.20,-0.11 -3.14,-0.49 -3.08,-0.87 -2.93,-1.23 -2.78,-1.59 -2.55,-1.90 -2.32,-2.21 -2.02,-2.45 -1.72,-2.70 -1.37,-2.86 -1.02,-3.03 -0.65,-3.11 -0.27,-3.19 0.11,-3.18 0.50,-3.16 0.50,-3.16 L 0.49,-3.16 Z"></path></g><g transform="translate(62.70001220703125 106.89999389648438) rotate(0 5.949981689453125 35.133331298828125)" stroke="none"><path fill="#1e1e1e" d="M 3.92,-0.61 Q 3.92,-0.61 4.55,4.62 5.19,9.86 5.89,14.51 6.59,19.15 7.49,24.21 8.40,29.28 9.25,34.75 10.10,40.22 10.93,45.30 11.76,50.37 12.36,54.19 12.96,58.01 13.56,60.55 14.15,63.09 14.92,66.18 15.68,69.27 15.74,69.90 15.80,70.53 15.65,71.15 15.51,71.77 15.17,72.30 14.84,72.84 14.35,73.24 13.86,73.64 13.27,73.87 12.68,74.09 12.04,74.12 11.41,74.14 10.80,73.96 10.20,73.79 9.68,73.42 9.16,73.06 8.79,72.55 8.41,72.04 8.22,71.44 8.03,70.83 8.04,70.20 8.05,69.57 8.26,68.97 8.47,68.38 8.86,67.88 9.25,67.38 9.78,67.03 10.31,66.69 10.92,66.53 11.53,66.37 12.16,66.41 12.80,66.46 13.38,66.70 13.96,66.94 14.44,67.36 14.92,67.78 15.23,68.32 15.55,68.87 15.68,69.49 15.80,70.11 15.72,70.74 15.65,71.37 15.37,71.94 15.10,72.51 14.65,72.96 14.21,73.41 13.65,73.70 13.08,73.99 12.46,74.08 11.83,74.17 11.21,74.06 10.59,73.95 10.03,73.64 9.48,73.34 9.05,72.87 8.62,72.40 8.37,71.83 8.11,71.25 8.11,71.25 8.11,71.25 7.73,67.68 7.35,64.12 7.16,61.49 6.98,58.86 6.51,55.11 6.04,51.36 5.11,46.29 4.18,41.22 3.20,35.86 2.22,30.50 1.11,25.42 0.00,20.33 -0.96,15.65 -1.93,10.98 -2.92,5.79 -3.92,0.61 -3.93,0.13 -3.95,-0.34 -3.85,-0.81 -3.75,-1.27 -3.54,-1.71 -3.34,-2.14 -3.03,-2.51 -2.73,-2.87 -2.34,-3.16 -1.96,-3.44 -1.52,-3.63 -1.08,-3.81 -0.60,-3.89 -0.13,-3.96 0.34,-3.92 0.81,-3.88 1.27,-3.72 1.72,-3.57 2.12,-3.31 2.52,-3.05 2.85,-2.71 3.18,-2.36 3.42,-1.94 3.66,-1.53 3.79,-1.07 3.92,-0.61 3.92,-0.61 L 3.92,-0.61 Z"></path></g><g transform="translate(211.7332763671875 114.83334350585938) rotate(0 1.98333740234375 27.199981689453125)" stroke="none"><path fill="#1e1e1e" d="M 4.34,-0.38 Q 4.34,-0.38 4.60,5.17 4.86,10.73 5.22,15.84 5.58,20.95 6.01,25.56 6.43,30.17 6.73,33.85 7.02,37.53 7.28,40.40 7.53,43.28 7.74,45.65 7.94,48.02 8.12,51.19 8.30,54.35 8.20,55.05 8.09,55.74 7.77,56.36 7.44,56.99 6.94,57.48 6.43,57.96 5.80,58.27 5.16,58.57 4.47,58.65 3.77,58.73 3.08,58.59 2.39,58.44 1.79,58.09 1.18,57.73 0.72,57.20 0.26,56.67 0.00,56.02 -0.26,55.37 -0.30,54.67 -0.35,53.97 -0.17,53.29 0.00,52.61 0.39,52.03 0.78,51.44 1.34,51.01 1.89,50.58 2.55,50.35 3.22,50.12 3.92,50.11 4.62,50.10 5.29,50.32 5.96,50.54 6.52,50.96 7.08,51.38 7.48,51.96 7.88,52.53 8.08,53.21 8.27,53.88 8.24,54.59 8.21,55.29 7.96,55.94 7.70,56.60 7.25,57.14 6.80,57.68 6.21,58.04 5.61,58.41 4.92,58.57 4.24,58.73 3.54,58.66 2.84,58.59 2.20,58.30 1.56,58.01 1.05,57.53 0.53,57.06 0.20,56.44 -0.13,55.82 -0.25,55.13 -0.37,54.44 -0.37,54.44 -0.37,54.44 -0.25,51.30 -0.13,48.17 -0.01,45.86 0.10,43.54 0.15,40.76 0.21,37.97 0.03,34.46 -0.13,30.96 -0.81,26.32 -1.49,21.69 -2.20,16.55 -2.91,11.42 -3.62,5.90 -4.34,0.38 -4.32,-0.14 -4.31,-0.66 -4.16,-1.17 -4.02,-1.68 -3.76,-2.13 -3.50,-2.59 -3.14,-2.97 -2.78,-3.35 -2.34,-3.64 -1.89,-3.92 -1.40,-4.09 -0.90,-4.26 -0.38,-4.31 0.14,-4.36 0.66,-4.27 1.18,-4.19 1.66,-3.99 2.15,-3.79 2.57,-3.48 2.99,-3.16 3.33,-2.76 3.66,-2.35 3.89,-1.88 4.12,-1.41 4.23,-0.89 4.34,-0.38 4.34,-0.38 L 4.34,-0.38 Z"></path></g><g transform="translate(79.13330078125 181.69998168945312) rotate(0 75.933349609375 -6.79998779296875)" stroke="none"><path fill="#1e1e1e" d="M 0,-3.15 Q 0,-3.15 3.91,-3.16 7.82,-3.17 13.55,-3.09 19.28,-3.02 26.12,-2.96 32.96,-2.91 40.56,-3.03 48.16,-3.16 55.43,-3.52 62.70,-3.89 69.97,-4.68 77.23,-5.47 84.26,-6.29 91.28,-7.11 97.71,-7.78 104.14,-8.46 109.66,-8.90 115.19,-9.35 119.48,-9.70 123.77,-10.05 126.33,-10.60 128.89,-11.15 131.61,-11.78 134.33,-12.42 136.92,-13.32 139.51,-14.22 143.38,-15.02 147.25,-15.82 147.24,-15.74 147.23,-15.66 147.68,-16.35 148.14,-17.03 148.78,-17.54 149.43,-18.04 150.20,-18.31 150.98,-18.59 151.80,-18.60 152.62,-18.61 153.40,-18.36 154.18,-18.10 154.84,-17.62 155.50,-17.13 155.97,-16.46 156.43,-15.78 156.66,-15.00 156.89,-14.21 156.86,-13.39 156.83,-12.57 156.53,-11.80 156.24,-11.04 155.72,-10.41 155.19,-9.77 154.50,-9.34 153.80,-8.91 153.00,-8.72 152.20,-8.54 151.39,-8.61 150.57,-8.69 149.82,-9.03 149.07,-9.36 148.47,-9.92 147.87,-10.48 147.47,-11.19 147.08,-11.91 146.94,-12.72 146.79,-13.53 146.91,-14.34 147.04,-15.15 147.41,-15.88 147.79,-16.61 148.37,-17.18 148.96,-17.75 149.70,-18.11 150.44,-18.46 151.26,-18.56 152.07,-18.66 152.87,-18.49 153.68,-18.33 154.39,-17.91 155.09,-17.50 155.63,-16.88 156.17,-16.26 156.49,-15.51 156.80,-14.75 156.85,-13.93 156.91,-13.11 156.70,-12.32 156.49,-11.53 156.49,-11.53 156.49,-11.53 152.64,-8.75 148.79,-5.98 144.97,-5.63 141.15,-5.27 137.91,-4.89 134.68,-4.50 132.15,-4.71 129.63,-4.92 126.92,-4.84 124.21,-4.75 119.92,-4.39 115.63,-4.03 110.17,-3.58 104.70,-3.12 98.31,-2.43 91.92,-1.74 84.88,-0.88 77.84,-0.03 70.42,0.81 63.00,1.65 55.64,2.08 48.28,2.50 40.62,2.71 32.96,2.91 26.12,2.96 19.28,3.02 13.55,3.09 7.82,3.17 3.91,3.16 0,3.15 -0.37,3.10 -0.75,3.06 -1.11,2.92 -1.46,2.79 -1.77,2.57 -2.09,2.36 -2.34,2.07 -2.59,1.79 -2.77,1.45 -2.94,1.11 -3.03,0.74 -3.13,0.37 -3.13,-0.00 -3.13,-0.38 -3.03,-0.74 -2.94,-1.11 -2.77,-1.45 -2.59,-1.79 -2.34,-2.07 -2.09,-2.36 -1.77,-2.57 -1.46,-2.79 -1.10,-2.92 -0.75,-3.06 -0.37,-3.10 0.00,-3.15 0.00,-3.15 L 0,-3.15 Z"></path></g><g transform="translate(233.2666015625 176.03335571289062) rotate(0 17.28338623046875 -30.033340454101562)" stroke="none"><path fill="#1e1e1e" d="M -3.94,-0.17 Q -3.94,-0.17 -3.75,-3.77 -3.57,-7.38 -2.17,-11.64 -0.77,-15.89 1.24,-20.09 3.26,-24.29 5.69,-28.10 8.12,-31.92 10.22,-35.05 12.32,-38.19 14.96,-41.14 17.60,-44.09 20.13,-46.78 22.67,-49.47 24.57,-51.89 26.48,-54.30 28.01,-56.50 29.54,-58.69 30.99,-60.70 32.44,-62.70 32.94,-63.16 33.45,-63.61 34.08,-63.87 34.70,-64.14 35.38,-64.19 36.05,-64.24 36.71,-64.07 37.37,-63.91 37.94,-63.54 38.51,-63.17 38.93,-62.64 39.36,-62.11 39.59,-61.47 39.82,-60.83 39.83,-60.16 39.85,-59.48 39.65,-58.83 39.45,-58.18 39.05,-57.63 38.65,-57.08 38.10,-56.69 37.54,-56.29 36.89,-56.10 36.24,-55.90 35.56,-55.92 34.89,-55.95 34.25,-56.18 33.61,-56.42 33.09,-56.85 32.56,-57.27 32.20,-57.85 31.83,-58.42 31.67,-59.08 31.51,-59.74 31.57,-60.42 31.63,-61.09 31.90,-61.72 32.17,-62.34 32.63,-62.84 33.08,-63.34 33.67,-63.68 34.27,-64.01 34.93,-64.13 35.60,-64.26 36.27,-64.16 36.95,-64.07 37.55,-63.76 38.16,-63.46 38.64,-62.98 39.11,-62.49 39.41,-61.88 39.71,-61.27 39.80,-60.60 39.89,-59.93 39.76,-59.26 39.63,-58.60 39.29,-58.01 38.95,-57.42 38.95,-57.42 38.95,-57.42 37.34,-55.65 35.73,-53.88 33.88,-51.73 32.04,-49.59 29.83,-47.15 27.62,-44.72 25.08,-42.14 22.55,-39.56 20.15,-37.00 17.75,-34.44 15.67,-31.51 13.58,-28.59 11.54,-25.04 9.49,-21.50 7.88,-17.57 6.26,-13.65 5.24,-10.30 4.22,-6.95 4.08,-3.38 3.94,0.17 3.86,0.64 3.78,1.11 3.59,1.55 3.40,1.99 3.11,2.36 2.83,2.74 2.46,3.04 2.09,3.34 1.66,3.54 1.23,3.74 0.76,3.84 0.29,3.93 -0.17,3.91 -0.65,3.89 -1.10,3.75 -1.56,3.62 -1.97,3.38 -2.38,3.14 -2.72,2.81 -3.06,2.47 -3.32,2.07 -3.57,1.67 -3.72,1.22 -3.87,0.76 -3.90,0.29 -3.94,-0.17 -3.94,-0.17 L -3.94,-0.17 Z"></path></g><g transform="translate(65.5333251953125 96.70001220703125) rotate(0 -26.350006103515625 -8.783340454101562)" stroke="none"><path fill="#1e1e1e" d="M -1.92,3.36 Q -1.92,3.36 -5.29,1.33 -8.67,-0.69 -13.27,-2.69 -17.87,-4.68 -24.01,-6.72 -30.16,-8.75 -35.88,-10.47 -41.59,-12.19 -44.93,-12.77 -48.27,-13.34 -50.85,-13.68 -53.42,-14.01 -53.97,-14.22 -54.52,-14.43 -54.97,-14.80 -55.42,-15.18 -55.73,-15.67 -56.04,-16.17 -56.18,-16.74 -56.31,-17.31 -56.26,-17.90 -56.20,-18.48 -55.96,-19.02 -55.72,-19.55 -55.33,-19.98 -54.93,-20.42 -54.42,-20.70 -53.90,-20.98 -53.32,-21.08 -52.75,-21.19 -52.17,-21.10 -51.59,-21.01 -51.07,-20.75 -50.54,-20.48 -50.13,-20.06 -49.72,-19.64 -49.47,-19.11 -49.22,-18.58 -49.14,-18.00 -49.07,-17.42 -49.19,-16.84 -49.31,-16.27 -49.60,-15.76 -49.90,-15.25 -50.34,-14.87 -50.78,-14.48 -51.32,-14.26 -51.87,-14.03 -52.45,-13.99 -53.04,-13.95 -53.60,-14.10 -54.17,-14.25 -54.66,-14.57 -55.15,-14.89 -55.51,-15.36 -55.87,-15.82 -56.07,-16.37 -56.26,-16.92 -56.27,-17.51 -56.28,-18.10 -56.10,-18.66 -55.92,-19.21 -55.57,-19.69 -55.23,-20.16 -54.74,-20.49 -54.26,-20.83 -53.70,-20.99 -53.14,-21.16 -52.55,-21.14 -51.97,-21.11 -51.97,-21.11 -51.97,-21.11 -49.47,-20.41 -46.97,-19.70 -43.44,-18.87 -39.92,-18.04 -34.08,-16.45 -28.25,-14.86 -21.78,-12.93 -15.31,-11.01 -10.16,-9.07 -5.00,-7.12 -1.54,-5.24 1.92,-3.36 2.29,-3.08 2.67,-2.80 2.97,-2.44 3.26,-2.08 3.47,-1.66 3.67,-1.24 3.76,-0.78 3.86,-0.32 3.84,0.13 3.83,0.60 3.70,1.05 3.57,1.50 3.34,1.91 3.11,2.31 2.78,2.65 2.46,2.99 2.07,3.24 1.67,3.49 1.23,3.64 0.79,3.79 0.32,3.83 -0.13,3.87 -0.60,3.80 -1.06,3.73 -1.49,3.54 -1.92,3.36 -1.92,3.36 L -1.92,3.36 Z"></path></g><g transform="translate(106.33331298828125 59.29998779296875) rotate(0 -2.83331298828125 -19.26666259765625)" stroke="none"><path fill="#1e1e1e" d="M -4.59,1.28 Q -4.59,1.28 -5.47,-2.86 -6.34,-7.00 -7.04,-10.35 -7.73,-13.69 -8.21,-16.97 -8.69,-20.25 -9.13,-22.89 -9.57,-25.54 -9.83,-27.94 -10.10,-30.34 -10.27,-32.53 -10.44,-34.71 -10.57,-36.55 -10.70,-38.40 -10.58,-39.21 -10.47,-40.01 -10.11,-40.74 -9.75,-41.47 -9.17,-42.05 -8.59,-42.62 -7.86,-42.98 -7.13,-43.34 -6.32,-43.45 -5.52,-43.56 -4.72,-43.41 -3.92,-43.25 -3.21,-42.85 -2.50,-42.45 -1.96,-41.84 -1.41,-41.23 -1.09,-40.48 -0.77,-39.73 -0.71,-38.92 -0.64,-38.11 -0.84,-37.32 -1.04,-36.53 -1.48,-35.84 -1.92,-35.16 -2.56,-34.65 -3.19,-34.14 -3.96,-33.86 -4.72,-33.58 -5.54,-33.56 -6.35,-33.54 -7.13,-33.78 -7.91,-34.02 -8.57,-34.50 -9.23,-34.97 -9.70,-35.64 -10.18,-36.30 -10.41,-37.08 -10.65,-37.86 -10.63,-38.67 -10.61,-39.49 -10.32,-40.25 -10.04,-41.02 -9.53,-41.65 -9.02,-42.28 -8.33,-42.72 -7.64,-43.16 -6.85,-43.35 -6.06,-43.55 -5.25,-43.48 -4.44,-43.41 -3.69,-43.09 -2.94,-42.77 -2.34,-42.22 -1.73,-41.68 -1.33,-40.97 -0.93,-40.26 -0.78,-39.45 -0.63,-38.65 -0.63,-38.66 -0.63,-38.66 -0.66,-36.83 -0.70,-35.00 -0.71,-30.85 -0.73,-26.71 -0.46,-24.07 -0.20,-21.43 0.18,-18.40 0.58,-15.38 1.18,-12.33 1.78,-9.28 3.18,-5.28 4.59,-1.28 4.68,-0.71 4.76,-0.14 4.71,0.42 4.66,0.99 4.47,1.53 4.29,2.08 3.97,2.56 3.66,3.04 3.24,3.44 2.83,3.83 2.33,4.12 1.83,4.40 1.27,4.55 0.72,4.71 0.14,4.73 -0.42,4.75 -0.98,4.63 -1.55,4.51 -2.06,4.25 -2.58,4.00 -3.02,3.64 -3.46,3.27 -3.81,2.81 -4.15,2.34 -4.37,1.81 -4.59,1.28 -4.59,1.28 L -4.59,1.28 Z"></path></g><g transform="translate(10 67.79998779296875) rotate(0 39.100006103515625 -28.899993896484375)" stroke="none"><path fill="#1e1e1e" d="M -2.58,-2.15 Q -2.58,-2.15 -0.14,-5.08 2.29,-8.02 5.57,-11.52 8.84,-15.03 13.13,-18.72 17.42,-22.42 22.59,-25.97 27.76,-29.52 32.73,-32.64 37.70,-35.75 43.10,-38.87 48.50,-41.99 53.40,-44.77 58.29,-47.54 61.96,-49.83 65.62,-52.11 68.20,-54.05 70.79,-55.98 73.31,-58.43 75.84,-60.88 76.39,-61.18 76.95,-61.47 77.57,-61.57 78.18,-61.68 78.80,-61.58 79.43,-61.48 79.98,-61.19 80.54,-60.89 80.97,-60.44 81.40,-59.98 81.67,-59.41 81.93,-58.84 82.00,-58.22 82.07,-57.59 81.94,-56.98 81.81,-56.37 81.48,-55.83 81.16,-55.29 80.68,-54.88 80.21,-54.47 79.62,-54.24 79.04,-54.00 78.41,-53.97 77.78,-53.93 77.18,-54.10 76.57,-54.27 76.05,-54.62 75.53,-54.97 75.15,-55.47 74.77,-55.97 74.57,-56.56 74.36,-57.16 74.36,-57.79 74.36,-58.41 74.56,-59.01 74.76,-59.61 75.14,-60.11 75.52,-60.61 76.04,-60.96 76.56,-61.32 77.16,-61.48 77.77,-61.65 78.39,-61.62 79.02,-61.59 79.60,-61.36 80.19,-61.13 80.67,-60.72 81.15,-60.32 81.47,-59.78 81.80,-59.24 81.94,-58.63 82.07,-58.01 82.01,-57.39 81.94,-56.77 81.68,-56.19 81.41,-55.62 80.98,-55.17 80.55,-54.71 80.55,-54.71 80.55,-54.71 79.23,-53.93 77.90,-53.15 76.04,-52.02 74.18,-50.88 71.34,-49.21 68.50,-47.53 64.75,-45.16 61.01,-42.80 56.16,-39.99 51.30,-37.19 46.02,-34.08 40.74,-30.97 35.92,-27.86 31.10,-24.74 26.25,-21.31 21.41,-17.88 17.48,-14.34 13.55,-10.80 10.51,-7.25 7.47,-3.70 5.02,-0.77 2.58,2.15 2.28,2.43 1.99,2.70 1.63,2.90 1.28,3.10 0.89,3.21 0.50,3.32 0.10,3.33 -0.30,3.34 -0.70,3.26 -1.09,3.17 -1.46,3.00 -1.82,2.82 -2.13,2.56 -2.44,2.30 -2.68,1.97 -2.92,1.65 -3.08,1.27 -3.23,0.90 -3.30,0.50 -3.36,0.10 -3.32,-0.30 -3.28,-0.70 -3.15,-1.08 -3.02,-1.47 -2.80,-1.81 -2.58,-2.15 -2.58,-2.15 L -2.58,-2.15 Z"></path></g><g transform="translate(216.8333740234375 102.36666870117188) rotate(0 35.98333740234375 -6.8000030517578125)" stroke="none"><path fill="#1e1e1e" d="M -0.64,-3.65 Q -0.64,-3.65 4.91,-4.49 10.48,-5.32 15.45,-6.12 20.42,-6.91 25.83,-7.71 31.24,-8.51 37.01,-9.16 42.78,-9.81 47.89,-10.70 53.01,-11.60 57.13,-12.45 61.26,-13.30 64.01,-14.33 66.75,-15.36 68.84,-16.20 70.93,-17.05 71.51,-17.12 72.09,-17.20 72.66,-17.08 73.23,-16.97 73.74,-16.68 74.24,-16.38 74.63,-15.95 75.01,-15.51 75.24,-14.97 75.47,-14.44 75.51,-13.85 75.55,-13.27 75.40,-12.71 75.26,-12.14 74.94,-11.66 74.62,-11.17 74.17,-10.81 73.71,-10.44 73.16,-10.25 72.61,-10.05 72.03,-10.04 71.45,-10.03 70.89,-10.20 70.33,-10.38 69.86,-10.72 69.39,-11.07 69.06,-11.54 68.72,-12.02 68.55,-12.58 68.39,-13.14 68.41,-13.72 68.43,-14.30 68.63,-14.85 68.84,-15.39 69.21,-15.85 69.58,-16.30 70.07,-16.61 70.57,-16.92 71.13,-17.05 71.70,-17.19 72.28,-17.14 72.86,-17.08 73.39,-16.85 73.93,-16.61 74.36,-16.22 74.79,-15.83 75.07,-15.32 75.35,-14.81 75.46,-14.24 75.56,-13.66 75.48,-13.09 75.40,-12.51 75.13,-11.99 74.87,-11.47 74.45,-11.06 74.04,-10.65 73.51,-10.40 72.99,-10.14 72.99,-10.14 72.99,-10.14 70.78,-9.70 68.57,-9.27 65.50,-8.56 62.43,-7.85 58.23,-6.92 54.03,-5.99 48.76,-4.99 43.49,-3.99 37.85,-3.24 32.22,-2.50 26.89,-1.55 21.57,-0.60 16.62,0.40 11.67,1.41 6.15,2.53 0.64,3.65 0.19,3.68 -0.24,3.70 -0.68,3.62 -1.12,3.53 -1.53,3.35 -1.94,3.16 -2.29,2.88 -2.64,2.60 -2.91,2.25 -3.19,1.89 -3.37,1.49 -3.55,1.08 -3.63,0.64 -3.70,0.19 -3.67,-0.24 -3.64,-0.69 -3.51,-1.11 -3.37,-1.54 -3.14,-1.92 -2.90,-2.30 -2.58,-2.62 -2.27,-2.93 -1.88,-3.16 -1.50,-3.39 -1.07,-3.52 -0.64,-3.65 -0.64,-3.65 L -0.64,-3.65 Z"></path></g><g transform="translate(306.933349609375 56.4666748046875) rotate(0 -13.0333251953125 18.133331298828125)" stroke="none"><path fill="#1e1e1e" d="M 3.32,2.49 Q 3.32,2.49 -0.26,6.93 -3.84,11.37 -7.00,15.76 -10.15,20.14 -12.87,23.83 -15.59,27.51 -17.64,30.45 -19.68,33.40 -21.65,35.82 -23.62,38.25 -24.09,38.57 -24.56,38.90 -25.11,39.05 -25.66,39.21 -26.23,39.18 -26.80,39.15 -27.34,38.94 -27.87,38.73 -28.31,38.37 -28.74,38.00 -29.04,37.51 -29.34,37.02 -29.47,36.46 -29.59,35.91 -29.53,35.34 -29.47,34.77 -29.24,34.25 -29.00,33.73 -28.61,33.31 -28.22,32.89 -27.71,32.62 -27.21,32.35 -26.64,32.25 -26.08,32.16 -25.52,32.25 -24.95,32.34 -24.44,32.60 -23.94,32.87 -23.54,33.28 -23.15,33.69 -22.90,34.21 -22.66,34.73 -22.59,35.30 -22.53,35.87 -22.65,36.43 -22.77,36.99 -23.06,37.48 -23.35,37.97 -23.79,38.34 -24.22,38.72 -24.75,38.93 -25.28,39.14 -25.85,39.18 -26.43,39.21 -26.98,39.06 -27.53,38.91 -28.00,38.59 -28.48,38.27 -28.83,37.82 -29.18,37.37 -29.36,36.83 -29.55,36.29 -29.55,35.71 -29.55,35.14 -29.37,34.60 -29.19,34.06 -28.85,33.60 -28.51,33.14 -28.51,33.14 -28.51,33.14 -26.82,31.30 -25.13,29.46 -23.00,26.63 -20.87,23.80 -18.36,20.04 -15.86,16.27 -12.85,11.57 -9.84,6.87 -6.58,2.19 -3.32,-2.49 -2.97,-2.85 -2.63,-3.21 -2.20,-3.48 -1.78,-3.75 -1.30,-3.91 -0.83,-4.06 -0.33,-4.11 0.16,-4.15 0.65,-4.07 1.15,-3.99 1.61,-3.79 2.07,-3.59 2.47,-3.29 2.87,-2.99 3.19,-2.61 3.50,-2.22 3.72,-1.77 3.93,-1.31 4.03,-0.82 4.14,-0.33 4.12,0.16 4.10,0.66 3.96,1.14 3.82,1.62 3.57,2.05 3.32,2.49 3.32,2.49 L 3.32,2.49 Z"></path></g><g transform="translate(238.933349609375 66.10000610351562) rotate(0 -9.91668701171875 15.300003051757812)" stroke="none"><path fill="#1e1e1e" d="M 3.37,2.81 Q 3.37,2.81 0.83,5.66 -1.69,8.52 -4.28,11.57 -6.86,14.63 -8.85,17.73 -10.83,20.83 -12.02,23.45 -13.20,26.06 -14.63,29.27 -16.05,32.48 -16.45,33.04 -16.85,33.59 -17.41,33.99 -17.97,34.38 -18.62,34.58 -19.27,34.78 -19.96,34.76 -20.64,34.74 -21.28,34.50 -21.92,34.26 -22.45,33.83 -22.98,33.40 -23.35,32.83 -23.71,32.25 -23.87,31.59 -24.04,30.92 -23.98,30.24 -23.92,29.56 -23.65,28.94 -23.38,28.31 -22.92,27.80 -22.46,27.30 -21.87,26.96 -21.27,26.63 -20.60,26.50 -19.93,26.37 -19.25,26.47 -18.58,26.56 -17.96,26.87 -17.35,27.17 -16.87,27.66 -16.39,28.14 -16.09,28.76 -15.79,29.37 -15.70,30.05 -15.61,30.72 -15.74,31.39 -15.87,32.06 -16.21,32.66 -16.55,33.25 -17.06,33.71 -17.57,34.16 -18.20,34.43 -18.82,34.70 -19.50,34.75 -20.19,34.80 -20.85,34.63 -21.51,34.47 -22.08,34.10 -22.66,33.73 -23.08,33.19 -23.51,32.66 -23.74,32.02 -23.98,31.38 -23.99,30.69 -24.01,30.01 -23.81,29.36 -23.60,28.71 -23.60,28.71 -23.60,28.71 -21.89,25.64 -20.18,22.57 -18.65,19.77 -17.13,16.96 -15.02,13.43 -12.92,9.90 -10.50,6.55 -8.07,3.20 -5.72,0.19 -3.37,-2.81 -2.98,-3.17 -2.60,-3.53 -2.14,-3.79 -1.68,-4.05 -1.17,-4.19 -0.66,-4.34 -0.13,-4.35 0.39,-4.37 0.91,-4.26 1.43,-4.15 1.90,-3.91 2.38,-3.68 2.79,-3.34 3.19,-3.00 3.51,-2.58 3.82,-2.15 4.02,-1.66 4.22,-1.17 4.30,-0.65 4.38,-0.13 4.34,0.39 4.29,0.92 4.11,1.42 3.94,1.92 3.65,2.36 3.37,2.81 3.37,2.81 L 3.37,2.81 Z"></path></g><g transform="translate(241.199951171875 64.9666748046875) rotate(0 20.9666748046875 -7.9333343505859375)" stroke="none"><path fill="#1e1e1e" d="M -2.31,-4.08 Q -2.31,-4.08 1.57,-5.97 5.45,-7.85 9.22,-9.40 13.00,-10.95 16.04,-12.18 19.07,-13.41 21.18,-14.47 23.30,-15.53 25.35,-16.55 27.41,-17.56 30.13,-18.32 32.85,-19.08 35.27,-19.58 37.70,-20.08 39.38,-20.47 41.07,-20.87 41.89,-20.87 42.71,-20.88 43.49,-20.62 44.27,-20.36 44.93,-19.87 45.59,-19.38 46.05,-18.70 46.52,-18.03 46.75,-17.24 46.97,-16.45 46.93,-15.63 46.89,-14.81 46.60,-14.04 46.30,-13.28 45.77,-12.65 45.24,-12.02 44.54,-11.59 43.84,-11.16 43.04,-10.98 42.24,-10.79 41.42,-10.88 40.61,-10.96 39.86,-11.30 39.11,-11.64 38.51,-12.20 37.91,-12.76 37.52,-13.48 37.13,-14.21 36.99,-15.02 36.85,-15.82 36.98,-16.64 37.11,-17.45 37.49,-18.18 37.86,-18.90 38.46,-19.47 39.05,-20.04 39.79,-20.39 40.53,-20.74 41.35,-20.84 42.17,-20.93 42.97,-20.76 43.77,-20.59 44.48,-20.17 45.19,-19.75 45.72,-19.13 46.26,-18.51 46.57,-17.75 46.88,-16.99 46.93,-16.17 46.98,-15.35 46.76,-14.56 46.55,-13.76 46.09,-13.08 45.64,-12.40 44.99,-11.90 44.34,-11.39 43.56,-11.13 42.79,-10.86 42.79,-10.86 42.79,-10.86 41.07,-10.67 39.35,-10.47 35.17,-9.85 30.99,-9.22 28.86,-8.43 26.73,-7.64 24.36,-6.75 21.99,-5.85 19.08,-4.79 16.16,-3.72 12.85,-2.17 9.53,-0.61 5.92,1.73 2.31,4.08 1.78,4.30 1.26,4.52 0.70,4.60 0.14,4.69 -0.41,4.64 -0.98,4.59 -1.51,4.40 -2.05,4.22 -2.52,3.91 -3.00,3.61 -3.39,3.19 -3.78,2.78 -4.05,2.29 -4.33,1.80 -4.49,1.25 -4.64,0.71 -4.66,0.14 -4.67,-0.42 -4.55,-0.97 -4.44,-1.52 -4.19,-2.03 -3.94,-2.54 -3.58,-2.98 -3.22,-3.41 -2.76,-3.75 -2.31,-4.08 -2.31,-4.08 L -2.31,-4.08 Z"></path></g><g transform="translate(233.8333740234375 101.79998779296875) rotate(0 3.11663818359375 20.683334350585938)" stroke="none"><path fill="#1e1e1e" d="M 4.05,-0.75 Q 4.05,-0.75 4.67,3.68 5.29,8.11 5.98,13.31 6.68,18.50 7.26,23.16 7.83,27.83 8.35,31.45 8.87,35.07 9.38,38.01 9.90,40.94 9.87,41.54 9.84,42.14 9.62,42.69 9.40,43.25 9.02,43.71 8.63,44.17 8.12,44.48 7.61,44.79 7.03,44.92 6.45,45.05 5.85,44.99 5.26,44.93 4.71,44.68 4.17,44.43 3.73,44.02 3.30,43.61 3.01,43.09 2.73,42.56 2.63,41.97 2.53,41.38 2.63,40.79 2.72,40.20 3.00,39.67 3.28,39.14 3.71,38.73 4.14,38.31 4.68,38.06 5.22,37.81 5.82,37.74 6.41,37.67 7.00,37.80 7.58,37.92 8.09,38.23 8.61,38.53 9.00,38.99 9.39,39.44 9.61,40.00 9.83,40.55 9.87,41.15 9.90,41.74 9.75,42.32 9.59,42.90 9.26,43.39 8.92,43.89 8.45,44.25 7.97,44.62 7.41,44.81 6.84,45.01 6.25,45.01 5.65,45.01 5.08,44.82 4.51,44.63 4.03,44.27 3.56,43.92 3.22,43.42 2.88,42.93 2.72,42.35 2.56,41.78 2.56,41.78 2.56,41.78 2.40,38.84 2.25,35.90 1.86,32.33 1.48,28.76 0.69,24.18 -0.08,19.60 -1.06,14.54 -2.03,9.47 -3.04,5.11 -4.05,0.75 -4.08,0.25 -4.11,-0.24 -4.02,-0.73 -3.94,-1.22 -3.73,-1.67 -3.53,-2.12 -3.22,-2.51 -2.92,-2.91 -2.53,-3.21 -2.14,-3.52 -1.68,-3.73 -1.23,-3.93 -0.74,-4.02 -0.25,-4.11 0.23,-4.08 0.73,-4.05 1.21,-3.91 1.68,-3.76 2.11,-3.50 2.53,-3.25 2.89,-2.90 3.24,-2.55 3.50,-2.12 3.75,-1.69 3.90,-1.22 4.05,-0.75 4.05,-0.75 L 4.05,-0.75 Z"></path></g><g transform="translate(114.83331298828125 70.066650390625) rotate(0 0.00004999999998744897 0.00005000000010113581)" stroke="none"><path fill="#1e1e1e" d="M 3.14,-3.14 Q 3.14,-3.14 3.55,-2.55 3.97,-1.97 4.18,-1.28 4.40,-0.59 4.38,0.11 4.36,0.83 4.11,1.51 3.86,2.18 3.41,2.74 2.96,3.30 2.36,3.69 1.75,4.08 1.05,4.25 0.36,4.42 -0.35,4.36 -1.07,4.31 -1.73,4.02 -2.39,3.74 -2.92,3.26 -3.46,2.78 -3.81,2.15 -4.16,1.53 -4.30,0.82 -4.43,0.11 -4.34,-0.59 -4.24,-1.30 -3.92,-1.94 -3.60,-2.59 -3.09,-3.09 -2.59,-3.60 -1.94,-3.92 -1.30,-4.24 -0.59,-4.34 0.12,-4.43 0.82,-4.30 1.53,-4.16 2.15,-3.81 2.78,-3.46 3.26,-2.92 3.74,-2.39 4.02,-1.73 4.31,-1.07 4.36,-0.35 4.42,0.36 4.25,1.05 4.07,1.75 3.69,2.36 3.30,2.96 2.74,3.41 2.18,3.86 1.51,4.11 0.83,4.36 0.11,4.38 -0.60,4.40 -1.28,4.18 -1.97,3.97 -2.55,3.55 -3.14,3.13 -3.14,3.14 -3.14,3.14 -3.47,2.71 -3.80,2.29 -4.02,1.80 -4.24,1.32 -4.33,0.79 -4.43,0.26 -4.40,-0.26 -4.36,-0.80 -4.20,-1.31 -4.04,-1.82 -3.77,-2.28 -3.49,-2.73 -3.11,-3.11 -2.73,-3.49 -2.28,-3.77 -1.82,-4.05 -1.31,-4.20 -0.80,-4.36 -0.26,-4.40 0.26,-4.43 0.79,-4.33 1.32,-4.24 1.80,-4.02 2.29,-3.80 2.71,-3.47 3.14,-3.14 3.14,-3.14 L 3.14,-3.14 Z"></path></g><g transform="translate(116.5333251953125 65.5333251953125) rotate(0 -1.133331298828125 17.283340454101562)" stroke="none"><path fill="#1e1e1e" d="M 4.47,0.44 Q 4.47,0.44 4.12,3.70 3.78,6.95 3.17,10.81 2.56,14.67 2.26,18.42 1.96,22.17 2.43,24.76 2.90,27.36 3.61,30.58 4.33,33.80 4.34,34.51 4.35,35.23 4.13,35.90 3.91,36.58 3.48,37.15 3.06,37.72 2.47,38.13 1.89,38.54 1.20,38.73 0.52,38.93 -0.18,38.90 -0.89,38.87 -1.56,38.61 -2.22,38.36 -2.77,37.90 -3.32,37.45 -3.69,36.84 -4.07,36.24 -4.23,35.54 -4.39,34.85 -4.32,34.14 -4.25,33.43 -3.96,32.78 -3.66,32.13 -3.18,31.61 -2.70,31.09 -2.07,30.75 -1.45,30.41 -0.74,30.28 -0.04,30.16 0.65,30.27 1.35,30.38 1.99,30.70 2.62,31.03 3.12,31.54 3.61,32.05 3.92,32.70 4.22,33.34 4.31,34.05 4.39,34.75 4.25,35.45 4.10,36.15 3.74,36.76 3.38,37.37 2.84,37.84 2.30,38.31 1.65,38.58 0.99,38.85 0.28,38.90 -0.42,38.94 -1.11,38.76 -1.80,38.58 -2.39,38.18 -2.99,37.79 -3.42,37.23 -3.86,36.66 -4.10,35.99 -4.33,35.32 -4.33,35.32 -4.33,35.32 -4.78,31.90 -5.23,28.47 -5.57,25.13 -5.91,21.80 -5.82,17.73 -5.73,13.67 -5.40,9.87 -5.08,6.07 -4.77,2.81 -4.47,-0.44 -4.35,-0.97 -4.23,-1.50 -3.99,-1.99 -3.75,-2.47 -3.40,-2.88 -3.05,-3.30 -2.61,-3.61 -2.17,-3.93 -1.67,-4.13 -1.16,-4.34 -0.63,-4.41 -0.09,-4.49 0.44,-4.44 0.98,-4.38 1.49,-4.20 2.00,-4.02 2.45,-3.72 2.90,-3.42 3.27,-3.02 3.64,-2.63 3.90,-2.15 4.16,-1.68 4.31,-1.15 4.45,-0.63 4.46,-0.09 4.47,0.44 4.47,0.44 L 4.47,0.44 Z"></path></g><g transform="translate(103.5 78.566650390625) rotate(0 3.683319091796875 0)" stroke="none"><path fill="#1e1e1e" d="M 0,-4.68 Q 0,-4.68 1.95,-4.79 3.90,-4.89 4.90,-4.99 5.89,-5.08 6.50,-5.01 7.11,-4.93 7.68,-4.72 8.26,-4.50 8.76,-4.15 9.27,-3.80 9.67,-3.34 10.08,-2.88 10.36,-2.34 10.65,-1.80 10.80,-1.20 10.94,-0.61 10.94,0.00 10.94,0.61 10.79,1.20 10.65,1.80 10.36,2.34 10.08,2.88 9.67,3.34 9.27,3.80 8.76,4.15 8.26,4.50 7.68,4.72 7.11,4.93 6.50,5.01 5.89,5.08 2.94,4.98 0,4.88 -0.77,4.75 -1.55,4.62 -2.25,4.25 -2.95,3.88 -3.49,3.31 -4.04,2.74 -4.37,2.02 -4.70,1.30 -4.79,0.52 -4.87,-0.26 -4.70,-1.03 -4.53,-1.80 -4.12,-2.48 -3.72,-3.16 -3.12,-3.67 -2.51,-4.18 -1.78,-4.47 -1.04,-4.77 -0.26,-4.81 0.52,-4.85 1.28,-4.64 2.05,-4.43 2.70,-3.98 3.35,-3.54 3.83,-2.91 4.31,-2.28 4.56,-1.53 4.81,-0.78 4.81,0.00 4.81,0.79 4.56,1.53 4.31,2.28 3.83,2.91 3.35,3.54 2.70,3.98 2.04,4.43 1.28,4.64 0.52,4.85 -0.26,4.81 -1.05,4.76 -1.78,4.47 -2.51,4.18 -3.12,3.67 -3.72,3.16 -4.13,2.48 -4.53,1.80 -4.70,1.03 -4.87,0.26 -4.79,-0.52 -4.70,-1.30 -4.37,-2.02 -4.04,-2.74 -3.49,-3.31 -2.95,-3.88 -2.25,-4.25 -1.55,-4.62 -0.77,-4.75 0.00,-4.88 0.00,-4.88 0,-4.88 2.94,-4.98 5.89,-5.08 6.50,-5.01 7.11,-4.93 7.68,-4.72 8.26,-4.50 8.76,-4.15 9.27,-3.80 9.67,-3.34 10.08,-2.88 10.36,-2.34 10.65,-1.80 10.79,-1.20 10.94,-0.61 10.94,-0.00 10.94,0.61 10.80,1.20 10.65,1.80 10.36,2.34 10.08,2.88 9.67,3.34 9.27,3.80 8.76,4.15 8.26,4.50 7.68,4.72 7.11,4.93 6.50,5.01 5.89,5.08 4.90,4.99 3.90,4.89 1.95,4.79 0,4.68 -0.56,4.61 -1.12,4.55 -1.65,4.35 -2.17,4.15 -2.64,3.82 -3.10,3.50 -3.48,3.08 -3.85,2.66 -4.12,2.16 -4.38,1.66 -4.51,1.11 -4.65,0.56 -4.65,-0.00 -4.65,-0.56 -4.51,-1.11 -4.38,-1.66 -4.12,-2.16 -3.85,-2.66 -3.48,-3.08 -3.10,-3.50 -2.64,-3.82 -2.17,-4.15 -1.64,-4.35 -1.12,-4.55 -0.56,-4.61 0.00,-4.68 0.00,-4.68 L 0,-4.68 Z"></path></g><g transform="translate(92.16668701171875 88.20001220703125) rotate(0 8.216644287109375 0.5666656494140625)" stroke="none"><path fill="#1e1e1e" d="M 0.47,-4.79 Q 0.47,-4.79 3.73,-4.41 6.98,-4.03 11.79,-3.96 16.59,-3.88 17.39,-3.73 18.19,-3.57 18.89,-3.16 19.60,-2.76 20.14,-2.15 20.68,-1.54 20.99,-0.80 21.31,-0.05 21.37,0.75 21.43,1.56 21.23,2.35 21.03,3.14 20.59,3.82 20.15,4.50 19.51,5.01 18.88,5.52 18.11,5.79 17.35,6.07 16.53,6.09 15.72,6.10 14.95,5.86 14.17,5.62 13.51,5.14 12.86,4.66 12.38,4.00 11.91,3.34 11.68,2.56 11.45,1.78 11.47,0.97 11.50,0.15 11.78,-0.60 12.07,-1.36 12.58,-1.99 13.09,-2.62 13.78,-3.05 14.47,-3.49 15.26,-3.68 16.05,-3.87 16.86,-3.80 17.67,-3.73 18.41,-3.41 19.16,-3.08 19.76,-2.53 20.36,-1.99 20.76,-1.28 21.15,-0.57 21.30,0.22 21.45,1.02 21.34,1.83 21.22,2.63 20.86,3.36 20.49,4.08 19.91,4.65 19.34,5.23 18.61,5.58 17.88,5.94 17.07,6.05 16.26,6.15 16.26,6.15 16.26,6.15 13.43,5.98 10.60,5.81 8.32,5.57 6.04,5.34 2.78,5.07 -0.47,4.79 -1.04,4.67 -1.61,4.54 -2.13,4.28 -2.65,4.02 -3.09,3.64 -3.54,3.27 -3.88,2.80 -4.22,2.33 -4.43,1.79 -4.65,1.25 -4.73,0.67 -4.82,0.10 -4.76,-0.47 -4.70,-1.05 -4.51,-1.60 -4.31,-2.15 -3.99,-2.63 -3.67,-3.12 -3.24,-3.51 -2.82,-3.91 -2.31,-4.19 -1.80,-4.47 -1.24,-4.62 -0.68,-4.77 -0.10,-4.78 0.48,-4.79 0.48,-4.79 L 0.47,-4.79 Z"></path></g><g transform="translate(120.5 87.066650390625) rotate(0 13.316650390625 -6.79998779296875)" stroke="none"><path fill="#1e1e1e" d="M -2.66,-3.62 Q -2.66,-3.62 0.51,-5.79 3.68,-7.96 7.02,-9.83 10.35,-11.70 13.51,-13.09 16.67,-14.47 19.14,-15.47 21.61,-16.47 23.33,-17.23 25.06,-17.98 25.80,-18.12 26.54,-18.25 27.29,-18.14 28.03,-18.04 28.71,-17.69 29.38,-17.35 29.91,-16.82 30.43,-16.28 30.76,-15.60 31.09,-14.92 31.19,-14.18 31.28,-13.43 31.13,-12.69 30.99,-11.95 30.61,-11.30 30.23,-10.64 29.67,-10.15 29.10,-9.65 28.41,-9.36 27.71,-9.07 26.96,-9.01 26.21,-8.96 25.48,-9.14 24.75,-9.33 24.12,-9.74 23.49,-10.16 23.02,-10.75 22.55,-11.34 22.30,-12.05 22.05,-12.76 22.03,-13.51 22.02,-14.26 22.25,-14.98 22.47,-15.70 22.92,-16.31 23.36,-16.92 23.98,-17.35 24.60,-17.79 25.32,-18.00 26.04,-18.22 26.79,-18.19 27.55,-18.16 28.25,-17.89 28.96,-17.63 29.54,-17.15 30.12,-16.67 30.52,-16.04 30.92,-15.40 31.10,-14.66 31.27,-13.93 31.21,-13.18 31.14,-12.43 30.83,-11.74 30.53,-11.05 30.02,-10.49 29.51,-9.94 28.85,-9.57 28.19,-9.21 28.20,-9.21 28.20,-9.21 26.38,-8.70 24.57,-8.19 22.25,-7.48 19.93,-6.76 17.19,-5.66 14.45,-4.55 11.57,-2.85 8.69,-1.16 5.68,1.23 2.66,3.62 2.19,3.88 1.72,4.15 1.20,4.30 0.67,4.44 0.13,4.46 -0.40,4.48 -0.93,4.36 -1.46,4.25 -1.95,4.01 -2.44,3.78 -2.85,3.43 -3.27,3.08 -3.59,2.64 -3.91,2.21 -4.12,1.71 -4.33,1.21 -4.41,0.67 -4.49,0.13 -4.44,-0.40 -4.40,-0.94 -4.22,-1.45 -4.04,-1.96 -3.75,-2.42 -3.45,-2.87 -3.06,-3.25 -2.66,-3.62 -2.66,-3.62 L -2.66,-3.62 Z"></path></g><g transform="translate(135.23333740234375 97.26666259765625) rotate(0 24.083343505859375 -11.050003051757812)" stroke="none"><path fill="#1e1e1e" d="M -1.60,-3.56 Q -1.60,-3.56 3.51,-5.68 8.63,-7.81 13.18,-10.08 17.72,-12.35 22.71,-14.64 27.69,-16.92 32.29,-18.86 36.89,-20.79 39.76,-22.12 42.64,-23.45 44.71,-24.50 46.78,-25.54 47.36,-25.67 47.95,-25.80 48.55,-25.74 49.15,-25.68 49.69,-25.43 50.24,-25.17 50.68,-24.76 51.11,-24.35 51.40,-23.82 51.68,-23.29 51.78,-22.70 51.88,-22.10 51.78,-21.51 51.68,-20.92 51.40,-20.39 51.12,-19.86 50.69,-19.44 50.25,-19.03 49.71,-18.77 49.16,-18.52 48.57,-18.45 47.97,-18.39 47.38,-18.51 46.80,-18.64 46.28,-18.95 45.76,-19.26 45.37,-19.72 44.98,-20.17 44.76,-20.73 44.54,-21.29 44.50,-21.89 44.47,-22.49 44.63,-23.07 44.79,-23.65 45.12,-24.14 45.46,-24.64 45.94,-25.01 46.41,-25.37 46.98,-25.57 47.55,-25.76 48.15,-25.76 48.75,-25.76 49.32,-25.57 49.89,-25.38 50.37,-25.02 50.85,-24.66 51.19,-24.16 51.53,-23.66 51.69,-23.08 51.85,-22.51 51.82,-21.91 51.79,-21.31 51.57,-20.75 51.35,-20.19 50.96,-19.73 50.57,-19.27 50.06,-18.96 49.54,-18.65 49.54,-18.65 49.55,-18.65 47.33,-17.97 45.11,-17.30 42.19,-16.30 39.28,-15.31 34.83,-13.30 30.39,-11.29 25.61,-8.89 20.83,-6.50 16.20,-3.90 11.56,-1.31 6.58,1.12 1.60,3.56 1.15,3.70 0.70,3.84 0.23,3.87 -0.23,3.90 -0.69,3.81 -1.15,3.73 -1.58,3.54 -2.01,3.34 -2.39,3.05 -2.76,2.76 -3.05,2.39 -3.34,2.02 -3.53,1.59 -3.73,1.16 -3.81,0.70 -3.90,0.24 -3.87,-0.22 -3.84,-0.70 -3.70,-1.15 -3.56,-1.60 -3.32,-2.00 -3.08,-2.40 -2.74,-2.74 -2.41,-3.07 -2.01,-3.32 -1.60,-3.56 -1.60,-3.56 L -1.60,-3.56 Z"></path></g><g transform="translate(158.4666748046875 97.83334350585938) rotate(0 23.23333740234375 -9.916671752929688)" stroke="none"><path fill="#1e1e1e" d="M -1.68,-3.65 Q -1.68,-3.65 2.62,-5.43 6.94,-7.22 11.00,-9.19 15.07,-11.16 19.33,-13.14 23.59,-15.12 27.76,-16.77 31.94,-18.43 35.33,-19.75 38.72,-21.07 42.12,-22.19 45.53,-23.32 46.11,-23.37 46.69,-23.43 47.26,-23.30 47.83,-23.17 48.33,-22.86 48.83,-22.56 49.20,-22.11 49.57,-21.66 49.78,-21.12 50.00,-20.57 50.02,-19.99 50.05,-19.40 49.89,-18.84 49.72,-18.28 49.39,-17.80 49.06,-17.32 48.59,-16.97 48.12,-16.62 47.57,-16.44 47.01,-16.26 46.43,-16.26 45.84,-16.27 45.29,-16.46 44.74,-16.65 44.28,-17.01 43.82,-17.37 43.49,-17.86 43.17,-18.34 43.02,-18.91 42.87,-19.47 42.90,-20.06 42.94,-20.64 43.16,-21.18 43.39,-21.72 43.77,-22.16 44.15,-22.60 44.65,-22.90 45.16,-23.20 45.73,-23.32 46.30,-23.44 46.88,-23.37 47.46,-23.30 47.99,-23.05 48.52,-22.80 48.94,-22.39 49.36,-21.99 49.63,-21.47 49.90,-20.95 49.98,-20.37 50.07,-19.79 49.97,-19.22 49.87,-18.64 49.59,-18.13 49.32,-17.61 48.89,-17.22 48.46,-16.82 47.93,-16.58 47.39,-16.34 47.39,-16.34 47.40,-16.34 44.14,-15.68 40.89,-15.03 37.57,-13.94 34.26,-12.85 30.32,-11.13 26.38,-9.42 22.29,-7.30 18.19,-5.18 14.09,-2.89 10.00,-0.59 5.84,1.52 1.68,3.65 1.22,3.79 0.76,3.94 0.27,3.98 -0.20,4.01 -0.68,3.93 -1.15,3.84 -1.60,3.65 -2.04,3.45 -2.43,3.16 -2.81,2.86 -3.11,2.49 -3.42,2.11 -3.62,1.67 -3.82,1.23 -3.91,0.75 -4.01,0.28 -3.98,-0.20 -3.96,-0.68 -3.82,-1.15 -3.68,-1.61 -3.43,-2.03 -3.18,-2.44 -2.84,-2.79 -2.50,-3.14 -2.09,-3.39 -1.68,-3.65 -1.68,-3.65 L -1.68,-3.65 Z"></path></g><g transform="translate(182.2666015625 100.66665649414062) rotate(0 18.98333740234375 -4.25)" stroke="none"><path fill="#1e1e1e" d="M -0.42,-4.47 Q -0.42,-4.47 2.99,-4.74 6.42,-5.02 9.93,-5.65 13.45,-6.29 17.07,-7.16 20.70,-8.03 24.06,-8.93 27.42,-9.84 29.95,-10.66 32.48,-11.48 34.70,-12.14 36.92,-12.80 37.64,-12.85 38.35,-12.91 39.05,-12.73 39.74,-12.55 40.34,-12.16 40.94,-11.77 41.39,-11.21 41.83,-10.65 42.07,-9.97 42.32,-9.30 42.33,-8.58 42.35,-7.86 42.13,-7.18 41.91,-6.50 41.49,-5.92 41.07,-5.34 40.48,-4.93 39.90,-4.51 39.21,-4.31 38.53,-4.10 37.81,-4.13 37.09,-4.15 36.42,-4.40 35.75,-4.66 35.20,-5.11 34.64,-5.56 34.26,-6.17 33.88,-6.78 33.71,-7.47 33.55,-8.17 33.61,-8.88 33.67,-9.60 33.96,-10.25 34.25,-10.91 34.73,-11.44 35.21,-11.97 35.84,-12.32 36.47,-12.66 37.17,-12.79 37.87,-12.92 38.58,-12.82 39.29,-12.72 39.93,-12.40 40.57,-12.07 41.08,-11.56 41.58,-11.05 41.89,-10.41 42.20,-9.76 42.30,-9.05 42.39,-8.34 42.25,-7.64 42.11,-6.94 41.75,-6.32 41.39,-5.69 40.86,-5.22 40.32,-4.75 39.66,-4.47 39.00,-4.19 39.00,-4.19 39.00,-4.19 36.86,-3.80 34.71,-3.41 32.10,-2.80 29.48,-2.20 26.11,-1.29 22.74,-0.38 18.95,0.72 15.17,1.82 11.21,2.77 7.26,3.71 3.84,4.09 0.42,4.47 -0.11,4.45 -0.65,4.44 -1.17,4.29 -1.70,4.15 -2.17,3.89 -2.64,3.62 -3.04,3.25 -3.43,2.88 -3.73,2.43 -4.02,1.98 -4.20,1.47 -4.38,0.96 -4.43,0.42 -4.48,-0.11 -4.41,-0.65 -4.33,-1.18 -4.12,-1.68 -3.92,-2.18 -3.60,-2.62 -3.28,-3.06 -2.86,-3.41 -2.45,-3.76 -1.96,-3.99 -1.48,-4.23 -0.95,-4.35 -0.42,-4.47 -0.42,-4.47 L -0.42,-4.47 Z"></path></g></svg>