<?xml version="1.0" encoding="UTF-8" standalone="no"?>
<!DOCTYPE svg PUBLIC "-//W3C//DTD SVG 1.1//EN" "http://www.w3.org/Graphics/SVG/1.1/DTD/svg11.dtd">
<svg width="100%" height="100%" viewBox="0 0 82 82" version="1.1" xmlns="http://www.w3.org/2000/svg" xmlns:xlink="http://www.w3.org/1999/xlink" xml:space="preserve" xmlns:serif="http://www.serif.com/" style="fill-rule:evenodd;clip-rule:evenodd;stroke-linejoin:round;stroke-miterlimit:3;">
    <g transform="matrix(1,0,0,1,-4305.693507,-26981.549622)">
        <g transform="matrix(1,0,0,1,-7482.865642,26817.743714)">
            <g transform="matrix(0.681033,0,0,0.486757,-15221.415035,-5211.419196)">
                <path d="M39671.272,11073.236L39692.63,11043.353C39723.795,11043.353 39778.062,11043.353 39778.062,11043.353L39778.062,11147.943L39735.346,11207.708L39671.272,11207.708L39671.272,11207.666L39660.592,11192.767L39660.592,11133.001L39671.272,11118.06C39671.272,11118.06 39671.272,11094.037 39671.272,11073.236ZM39756.704,11073.236L39703.309,11073.236L39692.63,11088.177L39692.63,11177.826L39724.667,11177.826L39756.704,11133.001L39756.704,11073.236Z" style="fill:none;stroke:white;stroke-width:0.7px;"/>
            </g>
            <g transform="matrix(0.727282,0,0,0.727282,-18122.887804,-7778.143417)">
                <path d="M41198,11030.355L41238,10990.327L41238,10950.327L41218,10970.327L41218,10940.327L41198,10960.327L41198,10940.327L41178,10960.327L41178,10950.327L41158,10970.327L41168,10970.327L41148,10990.327L41168,10990.327L41148,11010.327L41178,11010.327L41158,11030.327L41198,11030.355Z" style="fill:none;stroke:white;stroke-width:4.3px;stroke-linejoin:bevel;"/>
            </g>
            <g transform="matrix(0.727282,0,0,0.727282,-18122.887804,-7778.143417)">
                <path d="M41148,10950.327L41158,10950.327L41158,10940.327L41148,10950.327Z" style="fill:none;stroke:white;stroke-width:4.3px;stroke-linejoin:bevel;"/>
            </g>
            <g transform="matrix(0.727282,0,0,0.727282,-18122.887804,-7778.143417)">
                <path d="M41138,10940.327L41148,10940.327L41148,10930.327L41138,10940.327Z" style="fill:none;stroke:white;stroke-width:4.3px;stroke-linejoin:bevel;"/>
            </g>
            <g transform="matrix(0.727282,0,0,0.727282,-18122.887804,-7778.143417)">
                <path d="M41158,10960.327L41168,10950.327L41168,10960.327L41158,10960.327Z" style="fill:none;stroke:white;stroke-width:4.3px;stroke-linejoin:bevel;"/>
            </g>
        </g>
    </g>
</svg>
